<?xml version="1.0" encoding="utf-8"?>
<!-- Generator: Adobe Illustrator 25.2.1, SVG Export Plug-In . SVG Version: 6.00 Build 0)  -->
<svg version="1.1" id="Vrstva_1" xmlns="http://www.w3.org/2000/svg" xmlns:xlink="http://www.w3.org/1999/xlink" x="0px" y="0px"
	 viewBox="0 0 23 23" style="enable-background:new 0 0 23 23;" xml:space="preserve">
<path d="M11.5,0C5.2,0,0,5.2,0,11.5C0,17.8,5.2,23,11.5,23C17.8,23,23,17.8,23,11.5C23,5.2,17.8,0,11.5,0z M5,19.7v-0.5
	c0-0.9,0.5-1.7,1.3-2.2l3-1.7c0.7,0.4,1.4,0.6,2.3,0.6c0.8,0,1.6-0.2,2.3-0.6l3,1.7c0.8,0.4,1.3,1.3,1.3,2.2v0.5
	c-1.8,1.4-4,2.3-6.5,2.3C9,22,6.8,21.1,5,19.7z M11.5,15C9.6,15,8,13.4,8,11.5v-2C8,7.6,9.6,6,11.5,6S15,7.6,15,9.5v2
	C15,13.4,13.4,15,11.5,15z M19,18.9c-0.1-1.1-0.8-2.1-1.7-2.7l-2.6-1.5c0.8-0.8,1.4-2,1.4-3.2v-2C16,7,14,5,11.5,5S7,7,7,9.5v2
	c0,1.3,0.5,2.4,1.4,3.2l-2.6,1.5c-1,0.6-1.6,1.6-1.7,2.7c-1.9-1.9-3-4.5-3-7.4C1,5.7,5.7,1,11.5,1C17.3,1,22,5.7,22,11.5
	C22,14.4,20.8,17,19,18.9z"/>
</svg>
